<svg id="Filled" height="512" viewBox="0 0 512 512" width="512" xmlns="http://www.w3.org/2000/svg"><rect fill="#ffb632" height="320" rx="32" width="464" x="24" y="96"/><path d="m488 128-215.82 126.51a31.98 31.98 0 0 1 -32.36 0l-215.82-126.51a32 32 0 0 1 32-32h400a32 32 0 0 1 32 32z" fill="#ffd33a"/><circle cx="256" cy="256" fill="#fbe9d8" r="96"/><path d="m456 88h-400a40.045 40.045 0 0 0 -40 40v256a40.045 40.045 0 0 0 40 40h400a40.045 40.045 0 0 0 40-40v-256a40.045 40.045 0 0 0 -40-40zm0 320h-400a24.028 24.028 0 0 1 -24-24v-242.037l107.954 63.283a8 8 0 0 0 8.092-13.8l-115.646-67.794a24.035 24.035 0 0 1 23.6-19.652h400a24.035 24.035 0 0 1 23.6 19.652l-115.646 67.791a8 8 0 1 0 8.092 13.8l107.954-63.28v242.037a24.028 24.028 0 0 1 -24 24z"/><path d="m256 160a96 96 0 1 0 55.216 174.541 8 8 0 0 0 -9.216-13.082 80.006 80.006 0 1 1 34-65.459v16a16 16 0 0 1 -32 0v-56a8 8 0 0 0 -16 0v4.261a48 48 0 1 0 4.079 67.346 31.991 31.991 0 0 0 59.921-15.607v-16a96.108 96.108 0 0 0 -96-96zm0 128a32 32 0 1 1 32-32 32.036 32.036 0 0 1 -32 32z"/></svg>