<?xml version="1.0" standalone="no"?>
<!DOCTYPE svg PUBLIC "-//W3C//DTD SVG 20010904//EN"
 "http://www.w3.org/TR/2001/REC-SVG-20010904/DTD/svg10.dtd">
<svg version="1.0" xmlns="http://www.w3.org/2000/svg"
 width="3400.000000pt" height="1864.000000pt" viewBox="0 0 3400.000000 1864.000000"
 preserveAspectRatio="xMidYMid meet">

<g transform="translate(0.000000,1864.000000) scale(0.100000,-0.100000)"
fill="#000000" stroke="none">
<path d="M0 9320 l0 -9320 17000 0 17000 0 0 9320 0 9320 -17000 0 -17000 0 0
-9320z m4290 -6285 c197 -53 344 -204 381 -393 15 -81 7 -210 -20 -285 -43
-123 -151 -237 -275 -292 -68 -30 -211 -65 -264 -65 -61 0 -227 46 -294 82
-190 99 -301 315 -271 525 33 228 208 398 455 443 68 12 218 4 288 -15z m1245
-6 c185 -56 314 -186 361 -364 19 -68 17 -200 -2 -266 -58 -198 -203 -326
-427 -379 -105 -24 -130 -25 -224 -5 -233 49 -384 171 -449 365 -27 79 -24
243 5 324 66 185 220 306 439 346 73 14 219 3 297 -21z m3505 6 c69 -16 167
-52 188 -68 8 -6 12 -41 12 -108 l0 -99 -80 0 -80 0 0 40 c0 47 -6 51 -110 74
-90 21 -302 24 -375 5 -92 -22 -135 -57 -135 -106 0 -59 74 -86 304 -108 317
-32 423 -73 481 -188 32 -65 35 -170 5 -234 -41 -91 -151 -168 -300 -209 -49
-14 -100 -18 -205 -18 -125 1 -149 3 -225 28 -101 33 -205 86 -255 129 l-37
32 54 59 55 60 61 -41 c119 -79 224 -107 386 -101 141 5 215 28 273 84 37 35
43 46 43 81 0 34 -6 46 -35 71 -50 44 -69 49 -394 88 -301 36 -398 105 -389
278 3 59 8 81 31 115 47 71 154 127 287 150 80 14 362 5 440 -14z m16471 0
c93 -24 175 -71 245 -140 101 -100 144 -208 144 -361 0 -270 -167 -457 -463
-519 -94 -20 -119 -19 -224 5 -221 52 -368 178 -424 362 -29 93 -24 254 10
341 65 166 228 291 429 327 66 12 206 5 283 -15z m-23038 -32 c8 -27 51 -176
97 -333 137 -476 138 -480 160 -480 11 0 20 2 20 5 0 3 29 104 64 223 35 119
87 298 116 397 28 99 55 191 59 205 l8 25 231 3 232 2 0 -85 0 -85 -55 0 -55
0 0 -344 0 -345 53 -3 52 -3 3 -82 3 -83 -196 0 -196 0 3 83 3 82 53 3 52 3 0
345 0 344 -29 0 c-32 0 -9 66 -200 -585 l-79 -270 -145 -3 -145 -3 -6 28 c-4
16 -59 209 -123 431 l-117 402 -33 0 -33 0 0 -345 0 -345 55 0 55 0 0 -85 0
-85 -190 0 -190 0 0 85 0 85 55 0 55 0 0 345 0 345 -55 0 -55 0 0 85 0 85 230
0 229 0 14 -47z m4319 15 c76 -35 138 -95 179 -170 32 -60 34 -68 34 -163 0
-88 -3 -107 -27 -157 -34 -73 -107 -147 -180 -181 l-56 -27 11 -31 c7 -17 26
-48 43 -68 28 -31 37 -36 76 -36 32 0 56 8 86 27 l41 27 50 -58 51 -59 -37
-32 c-56 -49 -109 -70 -182 -70 -96 0 -138 16 -201 80 -40 39 -66 78 -90 132
l-35 78 -142 0 -143 0 0 -60 0 -60 55 0 55 0 0 -85 0 -85 -190 0 -190 0 0 85
0 85 55 0 55 0 0 345 0 345 -55 0 -55 0 0 86 0 85 368 -3 367 -3 57 -27z
m1348 -113 l0 -146 -77 3 -78 3 -3 35 c-1 19 -5 45 -7 58 l-5 22 -260 0 -260
0 0 -115 0 -115 218 -2 217 -3 0 -80 0 -80 -217 -3 -218 -2 0 -145 0 -145 270
0 270 0 0 29 c0 16 3 43 6 60 l7 31 73 0 74 0 0 -145 0 -145 -487 2 -488 3 0
80 0 80 53 3 52 3 0 344 0 344 -52 3 -53 3 -3 69 c-2 38 -1 75 2 83 4 11 92
13 486 13 l480 0 0 -145z m1590 60 l0 -85 -51 0 c-37 0 -50 -4 -47 -12 3 -7
49 -163 104 -346 l99 -333 90 3 90 3 101 340 100 340 -48 3 -48 3 0 85 0 84
190 0 190 0 0 -85 0 -85 -55 0 c-30 0 -55 -2 -55 -5 0 -2 -35 -123 -79 -267
-43 -145 -100 -336 -127 -425 l-48 -163 -212 0 -212 0 -11 33 c-5 17 -53 178
-106 357 -53 179 -106 357 -118 397 l-22 72 -55 3 -55 3 -3 69 c-2 38 -1 75 2
83 4 10 45 13 196 13 l190 0 0 -85z m1228 3 l-3 -83 -52 -3 -53 -3 0 -344 0
-344 53 -3 52 -3 3 -82 3 -83 -196 0 -195 0 0 85 0 85 55 0 55 0 0 345 0 345
-55 0 -55 0 0 85 0 85 195 0 196 0 -3 -82z m462 -3 l0 -85 -55 0 -55 0 0 -345
0 -345 284 0 283 0 7 60 7 60 74 0 75 0 0 -145 0 -145 -500 0 -500 0 0 85 0
85 55 0 55 0 0 345 0 345 -55 0 -55 0 0 85 0 85 190 0 190 0 0 -85z m1090 0
l0 -85 -55 0 -55 0 0 -345 0 -345 285 0 285 0 0 29 c0 16 3 43 6 60 l7 31 73
0 74 0 0 -145 0 -145 -500 0 -500 0 0 85 0 85 55 0 55 0 0 345 0 345 -55 0
-55 0 0 85 0 85 190 0 190 0 0 -85z m1670 -60 l0 -145 -75 0 c-82 0 -81 -1
-87 80 l-3 35 -262 3 -263 2 0 -115 0 -115 218 -2 217 -3 3 -82 3 -83 -221 0
-220 0 0 -145 0 -145 269 0 269 0 7 60 7 60 74 0 74 0 0 -145 0 -145 -485 0
-485 0 0 84 0 85 53 3 52 3 3 343 2 342 -55 0 -55 0 0 85 0 85 480 0 480 0 0
-145z m960 60 l0 -85 -49 0 -48 0 28 -102 c15 -57 55 -212 90 -345 62 -242 62
-243 89 -243 l27 0 74 288 74 287 156 3 156 2 51 -202 c28 -112 61 -242 73
-290 21 -85 22 -88 50 -88 16 0 29 2 29 3 0 4 66 258 148 575 l30 112 -49 0
-49 0 0 85 0 85 190 0 190 0 0 -85 0 -85 -54 0 c-43 0 -56 -4 -60 -17 -3 -10
-48 -182 -101 -383 -53 -201 -102 -385 -109 -410 l-13 -45 -150 -3 -150 -3
-32 118 c-17 65 -53 197 -79 293 -45 167 -48 175 -72 175 -24 0 -27 -8 -88
-240 -35 -132 -70 -264 -79 -292 l-14 -53 -149 0 -148 0 -11 33 c-5 17 -35
129 -67 247 -31 118 -73 280 -95 360 -21 80 -42 161 -47 180 -8 34 -9 35 -65
38 l-57 3 0 84 0 85 190 0 190 0 0 -85z m2290 -60 l0 -145 -75 0 -74 0 -7 60
-7 60 -263 0 -264 0 0 -115 0 -115 218 -2 217 -3 3 -82 3 -83 -221 0 -220 0 0
-145 0 -145 269 0 269 0 6 31 c3 17 6 44 6 60 l0 29 80 0 80 0 0 -145 0 -145
-490 0 -490 0 0 85 0 85 55 0 55 0 0 345 0 345 -55 0 -55 0 0 85 0 85 480 0
480 0 0 -145z m877 130 c68 -20 143 -88 172 -156 31 -72 30 -162 -3 -234 l-25
-55 44 -46 c83 -85 106 -232 55 -340 -32 -65 -86 -121 -148 -151 l-57 -28
-407 -3 -408 -3 0 86 0 85 55 0 55 0 0 345 0 345 -55 0 -55 0 0 85 0 85 363 0
c295 0 373 -3 414 -15z m1564 1 c174 -37 322 -167 379 -332 99 -285 -75 -599
-372 -669 -49 -11 -138 -15 -395 -15 l-333 0 0 85 0 85 55 0 55 0 0 345 0 345
-55 0 -55 0 0 85 0 85 328 0 c242 0 344 -4 393 -14z m1429 -131 l0 -146 -77 3
-78 3 -3 35 c-1 19 -5 45 -7 58 l-5 22 -260 0 -260 0 0 -115 0 -115 218 -2
217 -3 3 -82 3 -83 -221 0 -220 0 0 -145 0 -145 269 0 268 0 7 60 7 60 74 0
75 0 0 -145 0 -145 -485 0 -485 0 0 75 c0 41 -1 78 -2 83 -2 4 21 8 50 10 l52
3 0 344 0 344 -51 3 -51 3 0 78 c1 42 1 79 2 82 0 3 216 5 480 5 l480 0 0
-145z m468 63 l-3 -83 -49 -3 c-39 -3 -47 -6 -44 -20 3 -9 49 -165 103 -345
l99 -328 89 3 90 3 13 40 c7 22 33 110 58 195 25 85 63 216 86 291 22 74 40
141 40 147 0 8 -17 12 -45 12 l-45 0 0 85 0 85 190 0 190 0 0 -85 0 -85 -54 0
c-53 0 -55 -1 -65 -32 -5 -18 -53 -179 -106 -358 -53 -179 -106 -356 -119
-395 l-23 -70 -211 -3 -211 -2 -30 97 c-30 97 -81 270 -177 595 l-49 167 -55
3 -55 3 -3 83 -3 82 196 0 196 0 -3 -82z m1810 -65 l3 -143 -79 0 -79 0 -7 60
-7 60 -259 0 -260 0 0 -117 0 -118 215 3 215 3 0 -86 0 -85 -215 0 -215 0 0
-145 0 -145 265 0 265 0 5 23 c2 12 6 38 7 57 l3 35 78 3 77 3 0 -146 0 -145
-490 0 -490 0 0 85 0 85 55 0 55 0 0 345 0 345 -55 0 -55 0 0 85 0 85 483 -2
482 -3 3 -142z m480 65 l-3 -83 -52 -3 -53 -3 0 -345 0 -344 280 0 279 0 5 33
c3 17 7 43 8 57 3 24 6 25 81 28 l77 3 0 -146 0 -145 -505 0 -506 0 3 83 3 82
53 3 52 3 0 344 0 344 -52 3 -53 3 -3 83 -3 82 196 0 196 0 -3 -82z m2682 66
c71 -21 117 -51 173 -113 62 -69 90 -144 90 -241 0 -145 -77 -266 -211 -332
l-67 -33 -227 -3 -228 -4 0 -58 0 -59 53 -3 52 -3 3 -82 3 -83 -196 0 -195 0
0 85 0 85 55 0 55 0 0 345 0 345 -55 0 -55 0 0 85 0 85 348 0 c289 0 357 -3
402 -16z m804 7 c5 -7 185 -624 231 -788 15 -55 21 -63 41 -63 14 0 24 6 24
14 0 12 34 128 202 704 l42 142 228 0 228 0 0 -85 0 -85 -55 0 -55 0 0 -345 0
-345 55 0 55 0 0 -85 0 -85 -190 0 -190 0 0 85 0 85 55 0 55 0 0 346 0 345
-32 -3 -33 -3 -62 -215 c-35 -118 -91 -311 -125 -427 l-62 -213 -142 0 -143 0
-24 83 c-14 45 -70 237 -125 427 l-99 345 -32 3 -31 3 0 -345 0 -346 55 0 55
0 0 -85 0 -85 -192 2 -193 3 0 80 0 80 53 3 52 3 0 344 0 344 -52 3 -53 3 -3
69 c-2 38 -1 75 2 83 4 10 51 13 230 13 124 0 227 -4 230 -9z m2046 -136 l0
-146 -77 3 -78 3 -3 35 c-1 19 -5 45 -7 58 l-5 22 -260 0 -260 0 0 -115 0
-115 218 -2 217 -3 0 -80 0 -80 -217 -3 -218 -2 0 -145 0 -145 270 0 270 0 0
29 c0 16 3 43 6 60 l7 31 73 0 74 0 0 -145 0 -145 -487 2 -488 3 0 80 0 80 53
3 52 3 0 344 0 344 -52 3 -53 3 -3 69 c-2 38 -1 75 2 83 4 11 92 13 486 13
l480 0 0 -145z m541 78 c17 -38 55 -124 85 -193 217 -504 260 -595 282 -598
l22 -3 0 345 0 346 -55 0 -55 0 0 85 0 85 193 -2 192 -3 0 -80 0 -80 -52 -3
-53 -3 0 -344 0 -344 53 -3 52 -3 0 -80 0 -80 -209 0 -210 0 -186 425 c-158
360 -189 425 -208 428 l-22 3 0 -345 0 -346 55 0 55 0 0 -85 0 -85 -192 2
-193 3 0 80 0 80 53 3 52 3 0 344 0 344 -52 3 -53 3 -3 69 c-2 38 -1 75 2 83
4 10 48 13 211 13 l206 0 30 -67z m1867 -80 l3 -143 -80 0 -80 0 -7 60 -7 60
-153 0 -154 0 0 -344 0 -345 53 -3 52 -3 3 -82 3 -83 -196 0 -195 0 0 85 0 85
55 0 55 0 0 345 0 345 -154 0 -153 0 -7 -60 -7 -60 -74 0 -75 0 0 145 0 145
558 -2 557 -3 3 -142z"/>
<path d="M3980 2875 c-66 -19 -138 -64 -181 -113 -88 -100 -110 -248 -55 -369
53 -115 162 -193 301 -212 144 -21 288 22 371 111 72 77 89 124 89 243 -1 88
-4 107 -28 157 -35 72 -110 140 -185 169 -75 29 -233 36 -312 14z"/>
<path d="M5210 2874 c-221 -60 -329 -294 -229 -500 66 -137 249 -220 430 -194
137 20 243 91 296 199 25 49 28 68 28 151 0 83 -3 102 -28 155 -32 69 -63 104
-127 145 -89 57 -250 76 -370 44z"/>
<path d="M25217 2880 c-112 -28 -220 -119 -257 -216 -27 -74 -27 -184 1 -258
59 -159 245 -253 444 -225 135 19 238 86 292 192 39 75 44 207 13 292 -30 80
-113 163 -196 195 -66 26 -229 37 -297 20z"/>
<path d="M6270 2680 l0 -200 210 0 c229 0 252 4 303 56 44 44 61 84 61 145 1
74 -39 142 -103 176 -42 22 -53 23 -258 23 l-213 0 0 -200z"/>
<path d="M17810 2765 l0 -115 229 0 c215 0 230 1 254 21 60 47 56 151 -7 190
-28 17 -52 19 -253 19 l-223 0 0 -115z"/>
<path d="M17810 2335 l0 -145 245 0 c264 0 275 2 324 54 36 39 41 119 9 166
-44 66 -64 70 -335 70 l-243 0 0 -145z"/>
<path d="M19430 2535 l0 -346 213 3 c205 3 214 4 268 29 69 33 129 91 166 161
25 48 28 63 28 153 0 86 -4 107 -25 150 -33 67 -99 131 -168 163 -55 26 -63
27 -269 30 l-213 3 0 -346z"/>
<path d="M26270 2679 l0 -200 219 3 219 3 43 30 c58 41 84 94 84 172 0 52 -5
68 -30 105 -18 25 -49 52 -75 66 -42 21 -56 22 -252 22 l-208 0 0 -201z"/>
</g>
</svg>
