<svg height="512" viewBox="0 0 512 512" width="512" xmlns="http://www.w3.org/2000/svg"><g id="BULINE"><circle cx="256" cy="256" fill="#f55b4b" r="256"/></g><g id="Icons"><path d="m311.48 436.61h-110.96l3.47-38.35 1.67-18.32h100.68l1.67 18.32z" fill="#e5e5e5"/><path d="m308.01 398.26h-104.02l1.67-18.32h100.68z" fill="#ccc"/><path d="m182 436.61h148a10.62 10.62 0 0 1 10.62 10.62v5.14a3.42 3.42 0 0 1 -3.42 3.42h-162.36a3.42 3.42 0 0 1 -3.42-3.42v-5.14a10.62 10.62 0 0 1 10.58-10.62z" fill="#fff"/><rect fill="#3e436d" height="271.92" rx="15.24" width="422.24" x="44.88" y="108.75"/><path d="m127.94 380.66h-67.81a15.24 15.24 0 0 1 -15.25-15.23v-241.43a15.24 15.24 0 0 1 15.25-15.24h67.81a15.24 15.24 0 0 0 -15.25 15.24v241.43a15.24 15.24 0 0 0 15.25 15.23z" fill="#32314b"/><circle cx="258" cy="118.81" fill="#27273d" r="5.14"/><rect fill="#7cc8fb" height="232.71" rx="13.57" width="391.1" x="60.45" y="128.36"/><path d="m112.69 128.35v232.71h-38.69a13.56 13.56 0 0 1 -13.57-13.57v-205.56a13.58 13.58 0 0 1 13.57-13.58z" fill="#41c0e3"/><g fill="#a2dcfc"><circle cx="425.68" cy="189.7" r="15.03"/><circle cx="425.68" cy="158.39" r="10.65"/></g></g></svg>